<svg width="293" height="268" viewBox="0 0 293 268" fill="none" xmlns="http://www.w3.org/2000/svg">
<circle cx="107.613" cy="184.637" r="148.312" transform="rotate(16.6783 107.613 184.637)" fill="url(#paint0_radial_1_116)"/>
<circle cx="107.613" cy="184.637" r="153.312" transform="rotate(16.6783 107.613 184.637)" stroke="white" stroke-opacity="0.05" stroke-width="10"/>
<rect opacity="0.8" x="52" y="126" width="43" height="30" rx="8" fill="url(#paint1_linear_1_116)"/>
<circle cx="73.5" cy="134.5" r="3.5" fill="url(#paint2_linear_1_116)"/>
<path d="M66 143C66 140.791 67.7909 139 70 139H77C79.2091 139 81 140.791 81 143V151H66V143Z" fill="url(#paint3_linear_1_116)"/>
<circle cx="73.5" cy="162.5" r="2.5" fill="#62D0A3"/>
<rect opacity="0.8" x="103" y="13" width="43" height="30" rx="8" fill="url(#paint4_linear_1_116)"/>
<circle cx="124.5" cy="21.5" r="3.5" fill="url(#paint5_linear_1_116)"/>
<path d="M117 30C117 27.7909 118.791 26 121 26H128C130.209 26 132 27.7909 132 30V38H117V30Z" fill="url(#paint6_linear_1_116)"/>
<circle cx="124.5" cy="49.5" r="2.5" fill="#62D0A3"/>
<rect opacity="0.8" x="187" y="78" width="43" height="30" rx="8" fill="url(#paint7_linear_1_116)"/>
<circle cx="208.5" cy="86.5" r="3.5" fill="url(#paint8_linear_1_116)"/>
<path d="M201 95C201 92.7909 202.791 91 205 91H212C214.209 91 216 92.7909 216 95V103H201V95Z" fill="url(#paint9_linear_1_116)"/>
<circle cx="208.5" cy="113.5" r="2.5" fill="#62D0A3"/>
<defs>
<radialGradient id="paint0_radial_1_116" cx="0" cy="0" r="1" gradientUnits="userSpaceOnUse" gradientTransform="translate(159.289 92.6532) rotate(118.339) scale(313.528)">
<stop stop-color="#96FCF0"/>
<stop offset="0.397535" stop-color="#427973"/>
<stop offset="0.707692" stop-color="#2D3838"/>
<stop offset="1" stop-color="#6DBEBE"/>
</radialGradient>
<linearGradient id="paint1_linear_1_116" x1="73.5" y1="126" x2="73.5" y2="156" gradientUnits="userSpaceOnUse">
<stop offset="0.471875" stop-color="#F8F6F6"/>
<stop offset="0.982292" stop-color="#C8C1C1"/>
</linearGradient>
<linearGradient id="paint2_linear_1_116" x1="73.5" y1="131" x2="73.5" y2="138" gradientUnits="userSpaceOnUse">
<stop stop-color="#4DAA83"/>
<stop offset="1" stop-color="#3A7B60"/>
</linearGradient>
<linearGradient id="paint3_linear_1_116" x1="73.5" y1="139" x2="73.5" y2="151" gradientUnits="userSpaceOnUse">
<stop stop-color="#4DAA83"/>
<stop offset="1" stop-color="#3A7B60"/>
</linearGradient>
<linearGradient id="paint4_linear_1_116" x1="124.5" y1="13" x2="124.5" y2="43" gradientUnits="userSpaceOnUse">
<stop offset="0.471875" stop-color="#F8F6F6"/>
<stop offset="0.982292" stop-color="#C8C1C1"/>
</linearGradient>
<linearGradient id="paint5_linear_1_116" x1="124.5" y1="18" x2="124.5" y2="25" gradientUnits="userSpaceOnUse">
<stop stop-color="#4DAA83"/>
<stop offset="1" stop-color="#3A7B60"/>
</linearGradient>
<linearGradient id="paint6_linear_1_116" x1="124.5" y1="26" x2="124.5" y2="38" gradientUnits="userSpaceOnUse">
<stop stop-color="#4DAA83"/>
<stop offset="1" stop-color="#3A7B60"/>
</linearGradient>
<linearGradient id="paint7_linear_1_116" x1="208.5" y1="78" x2="208.5" y2="108" gradientUnits="userSpaceOnUse">
<stop offset="0.471875" stop-color="#F8F6F6"/>
<stop offset="0.982292" stop-color="#C8C1C1"/>
</linearGradient>
<linearGradient id="paint8_linear_1_116" x1="208.5" y1="83" x2="208.5" y2="90" gradientUnits="userSpaceOnUse">
<stop stop-color="#4DAA83"/>
<stop offset="1" stop-color="#3A7B60"/>
</linearGradient>
<linearGradient id="paint9_linear_1_116" x1="208.5" y1="91" x2="208.5" y2="103" gradientUnits="userSpaceOnUse">
<stop stop-color="#4DAA83"/>
<stop offset="1" stop-color="#3A7B60"/>
</linearGradient>
</defs>
</svg>
