<svg width="41" height="43" viewBox="0 0 41 43" fill="none" xmlns="http://www.w3.org/2000/svg">
<path d="M20.5 1C9.73058 1 1 10.1783 1 21.5C1 32.8217 9.73058 42 20.5 42C31.2694 42 40 32.8217 40 21.5C40 10.1783 31.2694 1 20.5 1ZM3.22083 22.6389H7.53575C7.63542 25.4929 8.10125 28.1864 8.86717 30.6111H5.5045C4.19692 28.2388 3.392 25.5328 3.22083 22.6389ZM21.5833 10.1111V3.37003C24.5593 3.86658 27.1755 6.39378 28.9489 10.1111H21.5833ZM29.8719 12.3889C30.6887 14.7612 31.1925 17.4683 31.2987 20.3611H21.5833V12.3889H29.8719ZM19.4167 3.37003V10.1111H12.0511C13.8234 6.39378 16.4408 3.86658 19.4167 3.37003ZM19.4167 12.3889V20.3611H9.70133C9.8075 17.4683 10.3112 14.7612 11.1281 12.3889H19.4167ZM7.53683 20.3611H3.22083C3.392 17.4683 4.19692 14.7612 5.50342 12.3889H8.86608C8.10233 14.8136 7.6365 17.5082 7.53683 20.3611ZM9.70133 22.6389H19.4167V30.6111H11.1281C10.3112 28.2388 9.8075 25.5328 9.70133 22.6389ZM19.4167 32.8889V39.63C16.4408 39.1323 13.8234 36.6062 12.0511 32.8889H19.4167ZM21.5833 39.63V32.8889H28.95C27.1766 36.6062 24.5593 39.1323 21.5833 39.63ZM21.5833 30.6111V22.6389H31.2998C31.1925 25.5328 30.6898 28.2388 29.873 30.6111H21.5833ZM33.4642 22.6389H37.7781C37.608 25.5328 36.8031 28.2388 35.4955 30.6111H32.1328C32.8977 28.1864 33.3635 25.4929 33.4642 22.6389ZM33.4642 20.3611C33.3635 17.5082 32.8977 14.8136 32.1328 12.3889H35.4955C36.8031 14.7612 37.608 17.4683 37.7781 20.3611H33.4642ZM34.0189 10.1111H31.3073C30.5306 8.28433 29.5675 6.67736 28.4701 5.32892C30.6248 6.50425 32.5131 8.13742 34.0189 10.1111ZM12.5299 5.32892C11.4314 6.67736 10.4683 8.28433 9.69158 10.1111H6.98108C8.48692 8.13742 10.3752 6.50539 12.5299 5.32892ZM6.98108 32.8889H9.69267C10.4683 34.7157 11.4314 36.3226 12.5299 37.6699C10.3752 36.4946 8.48692 34.8626 6.98108 32.8889ZM28.4701 37.6699C29.5686 36.3215 30.5306 34.7157 31.3073 32.8889H34.0189C32.5131 34.8626 30.6248 36.4946 28.4701 37.6699Z" fill="white" stroke="white" stroke-width="0.5"/>
</svg>
