<svg width="25" height="44" viewBox="0 0 25 44" fill="none" xmlns="http://www.w3.org/2000/svg">
<path d="M23.824 29.8166C24.0153 26.7554 22.4369 24.5074 20.8585 23.1681C19.9019 22.2593 17.7974 21.2549 16.6973 20.8244C16.1711 20.5853 15.4058 20.2983 14.4014 19.9157V10.4452C16.4103 10.8757 17.8452 12.1671 18.6583 14.2238L23.2979 11.5453C21.6238 7.76671 18.6583 5.56651 14.4014 4.99255V0.735641H11.2924V4.94472C8.66175 5.18387 6.41372 6.14048 4.64399 7.81455C2.87427 9.48861 1.96549 11.641 1.96549 14.3195C1.96549 17.2371 2.96993 19.4373 4.93098 20.9679C6.98769 22.4985 8.4226 23.1203 11.2924 24.2204V34.1691C8.32694 33.8343 6.27023 32.3037 5.17013 29.4817L0.434914 32.2081C2.10898 36.6085 5.98325 39.2392 11.2924 39.574V43.783H14.4014V39.5261C19.9976 38.8087 23.824 35.2214 23.824 29.8166ZM7.46599 14.3195C7.46599 12.2149 8.94873 10.7322 11.2924 10.3496V18.6721C8.56609 17.3806 7.46599 16.2805 7.46599 14.3195ZM14.4014 25.4162C17.0799 26.6119 18.3235 27.7598 18.3235 29.8644C18.3235 31.9689 16.9364 33.5952 14.4014 34.1213V25.4162Z" fill="white"/>
</svg>
