<svg width="38" height="38" viewBox="0 0 38 38" fill="none" xmlns="http://www.w3.org/2000/svg">
<path fill-rule="evenodd" clip-rule="evenodd" d="M27.4444 8.44444H33.7778C36.1095 8.44444 38 10.3349 38 12.6667V13.7222C38 11.3905 36.1095 9.5 33.7778 9.5H4.22222C1.8905 9.5 0 11.3905 0 13.7222V12.6667C0 10.3349 1.8905 8.44444 4.22222 8.44444H10.5556V4.22222C10.5556 1.8905 12.4461 0 14.7778 0H23.2222C25.5539 0 27.4444 1.8905 27.4444 4.22222V8.44444ZM0 22.1667V33.7778C0 36.1095 1.8905 38 4.22222 38H33.7778C36.1095 38 38 36.1095 38 33.7778V22.1667C38 24.4984 36.1095 26.3889 33.7778 26.3889H4.22222C1.8905 26.3889 0 24.4984 0 22.1667ZM14.7778 4.22222C13.6124 4.22222 12.6667 5.168 12.6667 6.33333V8.44444H25.3333V6.33333C25.3333 5.168 24.3876 4.22222 23.2222 4.22222H14.7778Z" fill="white"/>
<path fill-rule="evenodd" clip-rule="evenodd" d="M33.7778 24.2778C36.1095 24.2778 38 22.3873 38 20.0556V13.7222C38 11.3905 36.1095 9.5 33.7778 9.5H4.22222C1.8905 9.5 0 11.3905 0 13.7222V20.0556C0 22.3873 1.8905 24.2778 4.22222 24.2778H33.7778ZM21.1111 21.1111C22.2764 21.1111 23.2222 20.1653 23.2222 19C23.2222 17.8347 22.2764 16.8889 21.1111 16.8889H16.8889C15.7236 16.8889 14.7778 17.8347 14.7778 19C14.7778 20.1653 15.7236 21.1111 16.8889 21.1111H21.1111Z" fill="white"/>
</svg>
