<svg width="34" height="35" viewBox="0 0 34 35" fill="none" xmlns="http://www.w3.org/2000/svg">
<path d="M23 26.272V23.706C25 22.358 27.08 19.927 27.703 16.81C27.889 16.913 27.909 16.98 28.116 16.98C29.107 16.98 29.825 15.693 29.825 14.107C29.825 12.545 29.002 11.28 28.031 11.242C28.218 10.568 28.324 9.665 28.324 8.507C28.324 4.641 25 0 17.541 0C10.912 0 6.764 4.641 6.764 8.507C6.764 9.63 6.833 10.55 6.952 11.262C6.041 11.399 5.323 12.614 5.323 14.107C5.323 15.694 6.127 16.98 7.119 16.98C7.325 16.98 7.144 16.913 7.328 16.81C7.952 19.926 10 22.358 12 23.705V26.119C7 26.764 0 29.556 0 32.349V33.41C0 34.473 1.076 34.473 2.137 34.473H31.862C32.924 34.473 34 34.473 34 33.411V32.35C34 29.735 28 27.125 23 26.272Z" fill="white"/>
</svg>
