<svg width="46" height="46" viewBox="0 0 46 46" fill="none" xmlns="http://www.w3.org/2000/svg">
<path d="M23.0003 7.6665C14.5317 7.6665 7.66699 14.5312 7.66699 22.9998C7.66699 31.4684 14.5317 38.3332 23.0003 38.3332C31.4689 38.3332 38.3337 31.4684 38.3337 22.9998C38.3337 14.5312 31.4689 7.6665 23.0003 7.6665ZM23.0003 32.1998C17.9189 32.1998 13.8003 28.0828 13.8003 22.9998C13.8003 17.9199 17.9189 13.7998 23.0003 13.7998C28.0818 13.7998 32.2003 17.9199 32.2003 22.9998C32.2003 28.0828 28.0803 32.1998 23.0003 32.1998Z" fill="white"/>
<path d="M23.0003 6.13333C24.6939 6.13333 26.0669 4.76034 26.0669 3.06667C26.0669 1.37299 24.6939 0 23.0003 0C21.3066 0 19.9336 1.37299 19.9336 3.06667C19.9336 4.76034 21.3066 6.13333 23.0003 6.13333Z" fill="white"/>
<path d="M23.0003 46C24.6939 46 26.0669 44.627 26.0669 42.9334C26.0669 41.2397 24.6939 39.8667 23.0003 39.8667C21.3066 39.8667 19.9336 41.2397 19.9336 42.9334C19.9336 44.627 21.3066 46 23.0003 46Z" fill="white"/>
<path d="M11.0733 6.73702C9.87575 5.53948 7.93455 5.53948 6.73702 6.73702C5.53948 7.93455 5.53948 9.87575 6.73702 11.0748C7.93455 12.2724 9.87575 12.2724 11.0733 11.0748C12.2708 9.87575 12.2708 7.93455 11.0733 6.73702ZM39.2621 34.9258C40.4596 36.1218 40.4596 38.0661 39.2621 39.2621C38.0646 40.4596 36.1234 40.4581 34.9258 39.2621C33.7283 38.0646 33.7283 36.1234 34.9258 34.9258C36.1249 33.7298 38.0646 33.7283 39.2621 34.9258Z" fill="white"/>
<path d="M3.06667 26.0664C4.76034 26.0664 6.13333 24.6934 6.13333 22.9998C6.13333 21.3061 4.76034 19.9331 3.06667 19.9331C1.37299 19.9331 0 21.3061 0 22.9998C0 24.6934 1.37299 26.0664 3.06667 26.0664Z" fill="white"/>
<path d="M42.9329 26.0664C44.6266 26.0664 45.9995 24.6934 45.9995 22.9998C45.9995 21.3061 44.6266 19.9331 42.9329 19.9331C41.2392 19.9331 39.8662 21.3061 39.8662 22.9998C39.8662 24.6934 41.2392 26.0664 42.9329 26.0664Z" fill="white"/>
<path d="M39.2605 11.0733C40.4581 9.87575 40.4581 7.93455 39.2621 6.73702C38.0646 5.53948 36.1218 5.53948 34.9243 6.73702C33.7283 7.93455 33.7267 9.87575 34.9243 11.0733C36.1234 12.2708 38.0645 12.2708 39.2605 11.0733ZM11.0733 39.2621C9.87575 40.4596 7.93455 40.4596 6.73702 39.2621C5.53948 38.0646 5.53948 36.1234 6.73702 34.9258C7.93455 33.7283 9.87575 33.7283 11.0733 34.9258C12.2693 36.1249 12.2708 38.0646 11.0733 39.2621Z" fill="white"/>
</svg>
